<svg width="64" height="65" viewBox="0 0 64 65" fill="none" xmlns="http://www.w3.org/2000/svg">
<rect y="0.369141" width="64" height="64" rx="32" fill="#EAF9FF"/>
<g clip-path="url(#clip0_83479_2769)">
<path d="M47.8425 32.787L44.3766 27.682L47.8425 22.5771C48.0045 22.3336 48.0438 22.0296 47.9495 21.7531C47.8543 21.4766 47.6364 21.2596 47.359 21.1681L36.0466 17.4182C35.6419 17.2817 35.2043 17.4356 34.9699 17.7871L32 22.242L29.03 17.7871C28.7938 17.4337 28.3525 17.2808 27.9533 17.4182L16.6409 21.1681C16.3635 21.2597 16.1456 21.4767 16.0504 21.7531C15.9561 22.0296 15.9955 22.3336 16.1575 22.5771L19.6234 27.6821L16.1576 32.787C15.9955 33.0305 15.9561 33.3345 16.0505 33.611C16.1456 33.8875 16.3636 34.1045 16.641 34.196L27.9534 37.946C28.3515 38.0798 28.7944 37.9304 29.03 37.577L32 33.1221L34.97 37.577C35.2059 37.9308 35.649 38.0798 36.0467 37.946L47.3591 34.196C47.6365 34.1044 47.8544 33.8874 47.9496 33.611C48.0439 33.3345 48.0045 33.0306 47.8425 32.787ZM32 30.4442L23.7136 27.6821L32 24.92L40.2864 27.6821L32 30.4442Z" fill="#007EA7"/>
<path d="M36.6397 39.7255C35.4597 40.1213 34.1256 39.692 33.4098 38.6177L32 36.5029L30.59 38.6177C29.8755 39.69 28.543 40.1232 27.3554 39.7236L19.8125 37.2095V42.6826C19.8125 43.0863 20.0707 43.4443 20.4534 43.5716L31.6978 47.3197C31.7317 47.3316 31.7655 47.3408 31.7994 47.3481C31.7994 47.3481 31.8003 47.3481 31.8003 47.349H31.8013C31.8672 47.3628 31.934 47.3701 32 47.3701C32.0705 47.3701 32.14 47.3618 32.2096 47.3463C32.2407 47.339 32.2709 47.3307 32.3012 47.3207L43.5465 43.5716C43.9291 43.4443 44.1873 43.0863 44.1873 42.6826V37.2096L36.6397 39.7255Z" fill="#007EA7"/>
</g>
<defs>
<clipPath id="clip0_83479_2769">
<rect width="32" height="32" fill="white" transform="translate(16 16.3691)"/>
</clipPath>
</defs>
</svg>
