<svg width="15" height="10" viewBox="0 0 15 10" fill="none" xmlns="http://www.w3.org/2000/svg">
<path d="M0.330173 1.2133C0.541647 0.992935 0.828428 0.869141 1.12745 0.869141C1.42648 0.869141 1.71326 0.992935 1.92473 1.2133L7.50681 7.03183L13.0889 1.2133C13.3016 0.999181 13.5864 0.8807 13.8821 0.883379C14.1778 0.886057 14.4606 1.00968 14.6697 1.22762C14.8788 1.44556 14.9974 1.74038 15 2.04858C15.0025 2.35678 14.8889 2.65371 14.6834 2.8754L8.30409 9.52498C8.09261 9.74535 7.80583 9.86914 7.50681 9.86914C7.20778 9.86914 6.921 9.74535 6.70953 9.52498L0.330173 2.8754C0.118763 2.65497 -6.49944e-08 2.35604 -5.137e-08 2.04435C-3.77456e-08 1.73266 0.118763 1.43373 0.330173 1.2133Z" fill="#00171F"/>
</svg>
