<svg width="64" height="65" viewBox="0 0 64 65" fill="none" xmlns="http://www.w3.org/2000/svg">
<rect y="0.369141" width="64" height="64" rx="32" fill="#003459"/>
<g clip-path="url(#clip0_83479_2725)">
<path d="M28.0123 28.1045C27.4622 28.1045 27.0146 28.552 27.0146 29.1021C27.0146 29.6522 27.4622 30.0998 28.0123 30.0998H29.01V29.1021C29.01 28.552 28.5624 28.1045 28.0123 28.1045Z" fill="white"/>
<path d="M35.9879 28.1045C35.4377 28.1045 34.9902 28.552 34.9902 29.1021V30.0998H35.9879C36.5379 30.0998 36.9855 29.6522 36.9855 29.1021C36.9855 28.552 36.538 28.1045 35.9879 28.1045Z" fill="white"/>
<path d="M32.9984 32.0918H31.0029V40.7306H32.9984V32.0918Z" fill="white"/>
<path d="M38.8554 47.043H25.1445V49.3692H38.8554V47.043Z" fill="white"/>
<path d="M40.0579 18.7834C38.0265 16.6856 35.3033 15.4756 32.3898 15.376C29.3331 15.2716 26.4397 16.3697 24.243 18.468C22.0491 20.5638 20.8214 23.3991 20.7859 26.4517C20.7569 28.9505 21.5327 31.3239 23.0293 33.3153C24.4469 35.2014 25.1201 37.5617 25.1438 40.7311H29.0106V32.0924H28.0129C26.3643 32.0924 25.023 30.7511 25.023 29.1025C25.023 27.4539 26.3643 26.1127 28.0129 26.1127C29.6615 26.1127 31.0027 27.4539 31.0027 29.1025V30.1002H32.9981V29.1025C32.9981 27.4539 34.3393 26.1127 35.9879 26.1127C37.6365 26.1127 38.9778 27.4539 38.9778 29.1025C38.9778 30.7511 37.6365 32.0924 35.9879 32.0924H34.9903V40.7311H38.8574C38.8905 37.5611 39.5711 35.1906 40.9922 33.2874C42.4468 31.3396 43.2156 29.0217 43.2156 26.5845C43.2156 23.6567 42.0942 20.8862 40.0579 18.7834Z" fill="white"/>
<path d="M38.8554 42.7236H25.1445V45.0512H38.8554V42.7236Z" fill="white"/>
</g>
<defs>
<clipPath id="clip0_83479_2725">
<rect width="34" height="34" fill="white" transform="translate(15 15.3691)"/>
</clipPath>
</defs>
</svg>
