<svg width="100" height="19" viewBox="0 0 100 19" fill="none" xmlns="http://www.w3.org/2000/svg">
<rect width="18" height="18" transform="translate(0 0.369141)" fill="#03B57A"/>
<g clip-path="url(#clip0_83479_2799)">
<path d="M8.11778 4.90096C7.72061 6.07914 7.32344 7.25733 7.24531 7.5057L7.09556 7.9706L4.23723 7.98334L1.37891 8.00245L3.63822 9.58822C4.88182 10.4607 5.91056 11.2122 5.93009 11.2504C5.94311 11.295 5.5785 12.4732 5.1097 13.8679C4.64091 15.2626 4.26979 16.4089 4.28281 16.4217C4.30234 16.4471 7.70108 14.0717 13.4633 10.0149L16.3151 8.00245L13.4568 7.98334L10.5985 7.9706L10.4487 7.5057C10.2339 6.837 8.86655 2.78023 8.85353 2.7675C8.84701 2.75476 8.51495 3.71641 8.11778 4.90096Z" fill="#FEFEFE"/>
<path d="M10.4228 12.8733C9.6024 13.0771 8.92526 13.2554 8.91223 13.2681C8.89921 13.2809 9.90191 14.0132 11.1455 14.8921C12.3891 15.7773 13.4113 16.4842 13.4244 16.4715C13.4374 16.4651 13.1509 15.5608 12.7863 14.4718C12.2654 12.9179 12.0961 12.4912 12.0115 12.4975C11.9529 12.4975 11.2367 12.6695 10.4228 12.8733Z" fill="#FEFEFE"/>
</g>
<rect width="18" height="18" transform="translate(20.3115 0.369141)" fill="#03B57A"/>
<g clip-path="url(#clip1_83479_2799)">
<path d="M28.4352 4.90096C28.038 6.07914 27.6408 7.25733 27.5627 7.5057L27.4129 7.9706L24.5546 7.98334L21.6963 8.00245L23.9556 9.58822C25.1992 10.4607 26.2279 11.2122 26.2475 11.2504C26.2605 11.295 25.8959 12.4732 25.4271 13.8679C24.9583 15.2626 24.5872 16.4089 24.6002 16.4217C24.6197 16.4471 28.0185 14.0717 33.7807 10.0149L36.6325 8.00245L33.7742 7.98334L30.9159 7.9706L30.7661 7.5057C30.5512 6.837 29.1839 2.78023 29.1709 2.7675C29.1644 2.75476 28.8323 3.71641 28.4352 4.90096Z" fill="#FEFEFE"/>
<path d="M30.7402 12.8733C29.9198 13.0771 29.2426 13.2554 29.2296 13.2681C29.2166 13.2809 30.2193 14.0132 31.4629 14.8921C32.7065 15.7773 33.7287 16.4842 33.7417 16.4715C33.7548 16.4651 33.4683 15.5608 33.1037 14.4718C32.5828 12.9179 32.4135 12.4912 32.3289 12.4975C32.2703 12.4975 31.554 12.6695 30.7402 12.8733Z" fill="#FEFEFE"/>
</g>
<rect width="18" height="18" transform="translate(40.623 0.369141)" fill="#03B57A"/>
<g clip-path="url(#clip2_83479_2799)">
<path d="M48.7379 4.90096C48.3407 6.07914 47.9436 7.25733 47.8654 7.5057L47.7157 7.9706L44.8573 7.98334L41.999 8.00245L44.2583 9.58822C45.5019 10.4607 46.5307 11.2122 46.5502 11.2504C46.5632 11.295 46.1986 12.4732 45.7298 13.8679C45.261 15.2626 44.8899 16.4089 44.9029 16.4217C44.9225 16.4471 48.3212 14.0717 54.0834 10.0149L56.9352 8.00245L54.0769 7.98334L51.2186 7.9706L51.0688 7.5057C50.854 6.837 49.4867 2.78023 49.4736 2.7675C49.4671 2.75476 49.1351 3.71641 48.7379 4.90096Z" fill="#FEFEFE"/>
<path d="M51.0429 12.8733C50.2225 13.0771 49.5454 13.2554 49.5324 13.2681C49.5193 13.2809 50.522 14.0132 51.7656 14.8921C53.0092 15.7773 54.0314 16.4842 54.0445 16.4715C54.0575 16.4651 53.771 15.5608 53.4064 14.4718C52.8855 12.9179 52.7162 12.4912 52.6316 12.4975C52.573 12.4975 51.8568 12.6695 51.0429 12.8733Z" fill="#FEFEFE"/>
</g>
<rect width="18" height="18" transform="translate(60.9346 0.369141)" fill="#03B57A"/>
<g clip-path="url(#clip3_83479_2799)">
<path d="M69.0494 4.90096C68.6523 6.07914 68.2551 7.25733 68.177 7.5057L68.0272 7.9706L65.1689 7.98334L62.3105 8.00245L64.5699 9.58822C65.8135 10.4607 66.8422 11.2122 66.8617 11.2504C66.8748 11.295 66.5101 12.4732 66.0413 13.8679C65.5726 15.2626 65.2014 16.4089 65.2144 16.4217C65.234 16.4471 68.6327 14.0717 74.3949 10.0149L77.2468 8.00245L74.3884 7.98334L71.5301 7.9706L71.3804 7.5057C71.1655 6.837 69.7982 2.78023 69.7852 2.7675C69.7787 2.75476 69.4466 3.71641 69.0494 4.90096Z" fill="#FEFEFE"/>
<path d="M71.3544 12.8733C70.534 13.0771 69.8569 13.2554 69.8439 13.2681C69.8309 13.2809 70.8335 14.0132 72.0771 14.8921C73.3207 15.7773 74.343 16.4842 74.356 16.4715C74.369 16.4651 74.0825 15.5608 73.7179 14.4718C73.197 12.9179 73.0278 12.4912 72.9431 12.4975C72.8845 12.4975 72.1683 12.6695 71.3544 12.8733Z" fill="#FEFEFE"/>
</g>
<rect width="18" height="18" transform="translate(81.2461 0.369141)" fill="#03B57A"/>
<g clip-path="url(#clip4_83479_2799)">
<path d="M89.3639 4.90096C88.9667 6.07914 88.5695 7.25733 88.4914 7.5057L88.3417 7.9706L85.4833 7.98334L82.625 8.00245L84.8843 9.58822C86.1279 10.4607 87.1567 11.2122 87.1762 11.2504C87.1892 11.295 86.8246 12.4732 86.3558 13.8679C85.887 15.2626 85.5159 16.4089 85.5289 16.4217C85.5484 16.4471 88.9472 14.0717 94.7094 10.0149L97.5612 8.00245L94.7029 7.98334L91.8446 7.9706L91.6948 7.5057C91.4799 6.837 90.1126 2.78023 90.0996 2.7675C90.0931 2.75476 89.761 3.71641 89.3639 4.90096Z" fill="#FEFEFE"/>
<path d="M91.6689 12.8733C90.8485 13.0771 90.1714 13.2554 90.1583 13.2681C90.1453 13.2809 91.148 14.0132 92.3916 14.8921C93.6352 15.7773 94.6574 16.4842 94.6704 16.4715C94.6835 16.4651 94.397 15.5608 94.0324 14.4718C93.5115 12.9179 93.3422 12.4912 93.2576 12.4975C93.199 12.4975 92.4828 12.6695 91.6689 12.8733Z" fill="#FEFEFE"/>
</g>
<defs>
<clipPath id="clip0_83479_2799">
<rect width="15.0404" height="13.8834" fill="white" transform="translate(1.32617 2.68359)"/>
</clipPath>
<clipPath id="clip1_83479_2799">
<rect width="15.0404" height="13.8834" fill="white" transform="translate(21.6436 2.68359)"/>
</clipPath>
<clipPath id="clip2_83479_2799">
<rect width="15.0404" height="13.8834" fill="white" transform="translate(41.9492 2.68359)"/>
</clipPath>
<clipPath id="clip3_83479_2799">
<rect width="15.0404" height="13.8834" fill="white" transform="translate(62.2637 2.68359)"/>
</clipPath>
<clipPath id="clip4_83479_2799">
<rect width="15.0404" height="13.8834" fill="white" transform="translate(82.5723 2.68359)"/>
</clipPath>
</defs>
</svg>
