<svg width="64" height="65" viewBox="0 0 64 65" fill="none" xmlns="http://www.w3.org/2000/svg">
<rect y="0.369141" width="64" height="64" rx="32" fill="#EAF9FF"/>
<g clip-path="url(#clip0_83479_2753)">
<path d="M20.75 17.3691C19.3866 17.3691 18.25 18.5058 18.25 19.8691V46.1191C18.2501 46.8095 18.8097 47.3691 19.5 47.3691H34.5C35.1903 47.3691 35.7499 46.8095 35.75 46.1191V40.4941C35.75 40.149 36.0298 39.8691 36.375 39.8691H37C37.7052 39.8691 38.25 40.414 38.25 41.1191V42.3691C38.25 44.4254 39.9437 46.1191 42 46.1191C44.0563 46.1191 45.75 44.4254 45.75 42.3691V26.1191C45.75 24.9399 45.1944 23.8262 44.251 23.1187L40.2495 20.1182C39.6388 19.6602 38.8582 19.8817 38.499 20.3696C38.0895 20.9259 38.1974 21.7063 38.7505 22.1201L40.2495 23.2432C40.5648 23.4793 40.7502 23.8503 40.75 24.2441V27.3691C40.75 28.5221 41.5589 29.511 42.6323 29.791C42.9656 29.8779 43.25 30.149 43.25 30.4941V42.3691C43.25 43.0743 42.7052 43.6191 42 43.6191C41.2948 43.6191 40.75 43.0743 40.75 42.3691V41.1191C40.75 39.0629 39.0563 37.3691 37 37.3691H36.375C36.0298 37.3691 35.75 37.0893 35.75 36.7441V19.8691C35.75 18.5058 34.6134 17.3691 33.25 17.3691L20.75 17.3691ZM21.375 19.8691H32.625C32.9712 19.8691 33.25 20.1479 33.25 20.4941V29.2441C33.25 29.5904 32.9712 29.8691 32.625 29.8691H21.375C21.0287 29.8691 20.75 29.5904 20.75 29.2441V20.4941C20.75 20.1479 21.0287 19.8691 21.375 19.8691Z" fill="#007EA7"/>
</g>
<defs>
<clipPath id="clip0_83479_2753">
<rect width="30" height="30" fill="white" transform="translate(17 17.3691)"/>
</clipPath>
</defs>
</svg>
