<svg width="35" height="34" viewBox="0 0 35 34" fill="none" xmlns="http://www.w3.org/2000/svg">
<rect x="1.3064" y="0.739989" width="32.6586" height="32.6586" rx="16.3293" stroke="#FCFCFC" stroke-width="0.8374"/>
<path d="M18.4961 8.69634C19.1071 8.694 19.7182 8.70014 20.3291 8.71477L20.4916 8.72063C20.6792 8.72733 20.8642 8.7357 21.0878 8.74575C21.9788 8.78762 22.5868 8.9283 23.1202 9.13514C23.6729 9.34784 24.1385 9.63591 24.6041 10.1015C25.0298 10.5199 25.3592 11.0259 25.5696 11.5845C25.7764 12.118 25.9171 12.7267 25.959 13.6177C25.969 13.8405 25.9774 14.0264 25.9841 14.214L25.9891 14.3764C26.004 14.987 26.0104 15.5979 26.0084 16.2087L26.0092 16.8334V17.9303C26.0113 18.5414 26.0049 19.1525 25.99 19.7634L25.9849 19.9259C25.9782 20.1134 25.9699 20.2985 25.9598 20.5221C25.9179 21.4131 25.7756 22.021 25.5696 22.5545C25.3599 23.1137 25.0304 23.6201 24.6041 24.0383C24.1853 24.464 23.679 24.7935 23.1202 25.0039C22.5868 25.2107 21.9788 25.3514 21.0878 25.3933C20.8642 25.4033 20.6792 25.4117 20.4916 25.4184L20.3291 25.4234C19.7182 25.4383 19.1071 25.4447 18.4961 25.4427L17.8714 25.4435H16.7752C16.1641 25.4456 15.553 25.4391 14.9421 25.4242L14.7797 25.4192C14.5809 25.412 14.3822 25.4036 14.1835 25.3941C13.2925 25.3522 12.6845 25.2099 12.1503 25.0039C11.5914 24.794 11.0853 24.4644 10.6672 24.0383C10.241 23.6199 9.91124 23.1135 9.70086 22.5545C9.49402 22.021 9.35334 21.4131 9.31147 20.5221C9.30214 20.3234 9.29377 20.1247 9.28635 19.9259L9.28216 19.7634C9.26672 19.1525 9.25974 18.5414 9.26123 17.9303V16.2087C9.25889 15.5979 9.26503 14.9871 9.27965 14.3764L9.28551 14.214C9.29221 14.0264 9.30058 13.8405 9.31063 13.6177C9.3525 12.7259 9.49318 12.1188 9.70002 11.5845C9.91052 11.0257 10.241 10.5197 10.6681 10.1023C11.0858 9.67589 11.5917 9.34581 12.1503 9.13514C12.6845 8.9283 13.2916 8.78762 14.1835 8.74575L14.7797 8.72063L14.9421 8.71644C15.5528 8.70101 16.1636 8.69403 16.7744 8.69551L18.4961 8.69634ZM17.6352 12.8833C17.0804 12.8755 16.5296 12.978 16.0148 13.1849C15.5 13.3917 15.0314 13.6989 14.6364 14.0884C14.2413 14.4779 13.9276 14.9421 13.7134 15.454C13.4993 15.9658 13.389 16.5151 13.389 17.0699C13.389 17.6247 13.4993 18.174 13.7134 18.6859C13.9276 19.1977 14.2413 19.6619 14.6364 20.0514C15.0314 20.441 15.5 20.7481 16.0148 20.955C16.5296 21.1619 17.0804 21.2643 17.6352 21.2565C18.7457 21.2565 19.8107 20.8154 20.5959 20.0302C21.3811 19.2449 21.8222 18.18 21.8222 17.0695C21.8222 15.959 21.3811 14.8941 20.5959 14.1088C19.8107 13.3236 18.7457 12.8833 17.6352 12.8833ZM17.6352 14.5581C17.9689 14.552 18.3005 14.6124 18.6106 14.7358C18.9207 14.8593 19.2031 15.0433 19.4413 15.2771C19.6795 15.5109 19.8687 15.7898 19.9979 16.0976C20.1271 16.4053 20.1936 16.7357 20.1937 17.0695C20.1938 17.4033 20.1273 17.7337 19.9982 18.0415C19.8691 18.3493 19.68 18.6283 19.4419 18.8622C19.2038 19.096 18.9215 19.2801 18.6114 19.4037C18.3013 19.5272 17.9698 19.5877 17.6361 19.5817C16.9698 19.5817 16.3308 19.317 15.8597 18.8459C15.3885 18.3748 15.1239 17.7358 15.1239 17.0695C15.1239 16.4032 15.3885 15.7642 15.8597 15.2931C16.3308 14.822 16.9698 14.5573 17.6361 14.5573L17.6352 14.5581ZM22.0316 11.6272C21.7614 11.6381 21.5059 11.753 21.3186 11.9479C21.1313 12.1429 21.0267 12.4028 21.0267 12.6732C21.0267 12.9435 21.1313 13.2034 21.3186 13.3984C21.5059 13.5933 21.7614 13.7083 22.0316 13.7191C22.3092 13.7191 22.5754 13.6088 22.7717 13.4125C22.968 13.2162 23.0783 12.9499 23.0783 12.6723C23.0783 12.3947 22.968 12.1285 22.7717 11.9322C22.5754 11.7358 22.3092 11.6256 22.0316 11.6256V11.6272Z" fill="#FCFCFC"/>
</svg>
