<svg width="64" height="65" viewBox="0 0 64 65" fill="none" xmlns="http://www.w3.org/2000/svg">
<rect y="0.369141" width="64" height="64" rx="32" fill="#EAF9FF"/>
<g clip-path="url(#clip0_83479_2761)">
<path fill-rule="evenodd" clip-rule="evenodd" d="M46.9998 32.7908C46.9998 30.4183 46.3861 28.1908 45.3111 26.2545C49.8936 15.882 40.3998 17.4008 39.8711 17.5045C37.8598 17.8983 35.9998 18.5295 34.2836 19.3308C34.0288 19.3166 33.7737 19.3095 33.5186 19.3095C27.1123 19.3095 21.7498 23.777 20.3773 29.767C23.7548 25.9795 26.1173 24.4508 27.5323 23.8395C27.3073 24.0412 27.0857 24.2449 26.8673 24.4508L26.6548 24.657C26.5107 24.7937 26.3682 24.932 26.2273 25.072L25.9823 25.322C25.8573 25.4479 25.7344 25.5745 25.6136 25.702L25.3586 25.972C24.8619 26.5022 24.3825 27.0484 23.9211 27.6095C23.748 27.8181 23.5772 28.0286 23.4086 28.2408L23.1586 28.557L22.9298 28.857L22.6723 29.197L22.4973 29.4383C21.9893 30.1317 21.5024 30.8403 21.0373 31.5633L21.0348 31.567C20.919 31.7479 20.8065 31.9262 20.6973 32.102L20.6798 32.1308C20.5698 32.3066 20.4636 32.4808 20.3611 32.6533L20.3498 32.6708C20.0723 33.1349 19.8169 33.5779 19.5836 33.9995C18.3698 36.1995 17.7786 37.737 17.7536 37.8283C13.9186 51.5358 25.8848 45.747 27.5548 44.8833C29.4089 45.7988 31.4495 46.2736 33.5173 46.2708C39.3798 46.2708 44.3673 42.5295 46.2236 37.3045H39.1411C38.0923 39.0745 36.0748 40.2745 33.7561 40.2745C30.3598 40.2745 27.6061 37.7008 27.6061 34.527H46.8886C46.9627 33.9579 46.9998 33.3799 46.9998 32.7908ZM44.4811 19.5245C45.6423 20.3083 46.5736 21.537 44.9736 25.682C43.4282 23.1959 41.118 21.2782 38.3898 20.217C39.6373 19.6145 42.7273 18.3408 44.4811 19.5245ZM19.8098 44.8558C18.8636 43.8858 18.6973 41.5245 20.7836 37.2208C21.8342 40.2288 23.913 42.7693 26.6536 44.3945C25.3036 45.1383 21.7161 46.812 19.8098 44.8558ZM27.5748 30.8395C27.6823 27.7545 30.3686 25.2845 33.6673 25.2845C36.9673 25.2845 39.6511 27.7545 39.7598 30.8395H27.5748Z" fill="#007EA7"/>
</g>
<defs>
<clipPath id="clip0_83479_2761">
<rect width="30" height="30" fill="white" transform="translate(17 17.3691)"/>
</clipPath>
</defs>
</svg>
