<svg width="34" height="34" viewBox="0 0 34 34" fill="none" xmlns="http://www.w3.org/2000/svg">
<rect x="0.4187" y="0.739989" width="32.6586" height="32.6586" rx="16.3293" stroke="#FCFCFC" stroke-width="0.8374"/>
<path d="M12.5098 11.2079C12.5095 11.652 12.3329 12.078 12.0186 12.3919C11.7044 12.7058 11.2783 12.882 10.8341 12.8818C10.3899 12.8816 9.96403 12.7049 9.6501 12.3907C9.33617 12.0765 9.15993 11.6504 9.16016 11.2062C9.16038 10.762 9.33704 10.3361 9.65129 10.0222C9.96553 9.70824 10.3916 9.532 10.8358 9.53223C11.28 9.53245 11.7059 9.70911 12.0198 10.0234C12.3337 10.3376 12.51 10.7637 12.5098 11.2079ZM12.56 14.122H9.2104V24.6063H12.56V14.122ZM17.8524 14.122H14.5195V24.6063H17.8189V19.1045C17.8189 16.0397 21.8133 15.7549 21.8133 19.1045V24.6063H25.121V17.9657C25.121 12.7989 19.209 12.9915 17.8189 15.5288L17.8524 14.122Z" fill="#FCFCFC"/>
</svg>
