<svg width="60" height="61" viewBox="0 0 60 61" fill="none" xmlns="http://www.w3.org/2000/svg">
<path d="M39.825 42.0695H26.25L11.8125 56.5071C12.2063 56.582 12.6187 56.6196 13.0313 56.6196H46.9688C50.5313 56.6196 53.4375 53.7133 53.4375 50.1508V20.957H47.3625L39.825 28.4946C40.8562 28.4946 41.7 29.3383 41.7 30.3696C41.7 31.4008 40.8562 32.2446 39.825 32.2446H36.075L30 38.3195H39.825C40.8562 38.3195 41.7 39.1633 41.7 40.1945C41.7 41.2258 40.8562 42.0695 39.825 42.0695Z" fill="#007EA7"/>
<path d="M53.0493 4.66846L46.1306 11.5872L43.3688 9.0504L39.1125 5.15037V14.5066C39.1125 15.6048 39.784 16.556 40.7419 16.9759L38.0332 19.6846C36.9981 18.9255 36.1795 17.8951 35.7563 16.6629C35.4937 15.9878 35.3625 15.2566 35.3625 14.5066V4.11914H13.0313C9.46873 4.11914 6.5625 7.02537 6.5625 10.5879V50.1504C6.5625 50.4608 6.62899 50.7495 6.67145 51.0463L4.29932 53.4185C3.56689 54.1509 3.56689 55.3374 4.29932 56.0698C4.66553 56.436 5.14526 56.6191 5.625 56.6191C6.10474 56.6191 6.58447 56.436 6.95068 56.0698L55.7007 7.31982C56.4331 6.5874 56.4331 5.40088 55.7007 4.66846C54.9683 3.93604 53.7817 3.93604 53.0493 4.66846ZM24.2437 32.2441H20.175C19.1438 32.2441 18.3 31.4004 18.3 30.3691C18.3 29.3379 19.1438 28.4941 20.175 28.4941H24.2437C25.275 28.4941 26.1187 29.3379 26.1187 30.3691C26.1187 31.4004 25.275 32.2441 24.2437 32.2441ZM30 22.4192H20.175C19.1438 22.4192 18.3 21.5754 18.3 20.5442C18.3 19.5128 19.1438 18.6692 20.175 18.6692H30C31.0312 18.6692 31.875 19.5128 31.875 20.5442C31.875 21.5754 31.0312 22.4192 30 22.4192Z" fill="#007EA7"/>
</svg>
