<svg width="15" height="10" viewBox="0 0 15 10" fill="none" xmlns="http://www.w3.org/2000/svg">
<path d="M0.330173 9.52498C0.541647 9.74535 0.828428 9.86914 1.12745 9.86914C1.42648 9.86914 1.71326 9.74535 1.92473 9.52498L7.50681 3.70645L13.0889 9.52498C13.3016 9.7391 13.5864 9.85758 13.8821 9.8549C14.1778 9.85222 14.4606 9.7286 14.6697 9.51066C14.8788 9.29272 14.9974 8.9979 15 8.6897C15.0025 8.3815 14.8889 8.08457 14.6834 7.86288L8.30409 1.2133C8.09261 0.992935 7.80583 0.86914 7.50681 0.86914C7.20778 0.86914 6.921 0.992935 6.70953 1.2133L0.330173 7.86288C0.118763 8.08331 -6.49944e-08 8.38224 -5.137e-08 8.69393C-3.77456e-08 9.00562 0.118763 9.30455 0.330173 9.52498Z" fill="#00171F"/>
</svg>
