<svg width="60" height="61" viewBox="0 0 60 61" fill="none" xmlns="http://www.w3.org/2000/svg">
<path fill-rule="evenodd" clip-rule="evenodd" d="M1.875 30.118H58.125V33.8545H30.8921L39.6343 47.1374H20.3657L29.1079 33.8545H1.875V30.118ZM20.3657 50.4946H39.6343V53.6332H20.3657V50.4946ZM50.1452 8.75578C51.025 8.9652 51.8652 9.31395 52.6352 9.78809L54.2532 9.06949L56.1602 10.9765L55.4419 12.594C55.9163 13.3642 56.265 14.2046 56.4743 15.0846L58.125 15.7199V18.4167L56.4738 19.0522C56.2645 19.932 55.9157 20.7722 55.4416 21.5422L56.1602 23.1602L54.2532 25.0672L52.6357 24.3488C51.8655 24.8231 51.025 25.1719 50.145 25.3812L49.5096 27.0319H46.8129L46.1774 25.3807C45.2977 25.1714 44.4574 24.8225 43.6874 24.3485L42.0694 25.0671L40.1624 23.1601L40.8807 21.5427C40.4064 20.7725 40.0577 19.932 39.8483 19.0521L38.1976 18.4167V15.7199L39.8486 15.0844C40.058 14.2045 40.4067 13.3643 40.8809 12.5943L40.1624 10.9764L42.0694 9.06938L43.6874 9.78797C44.4574 9.31383 45.2977 8.96508 46.1774 8.75566L46.813 7.10449H49.5098L50.1452 8.75578ZM48.1614 12.365C45.5637 12.365 43.4582 14.4705 43.4582 17.0684C43.4582 19.6661 45.5637 21.7716 48.1614 21.7716C50.7592 21.7716 52.8646 19.6661 52.8646 17.0684C52.8646 14.4705 50.7591 12.365 48.1614 12.365ZM13.8226 8.75578C14.7023 8.9652 15.5426 9.31395 16.3126 9.78809L17.9306 9.06949L19.8376 10.9765L19.1191 12.594C19.5935 13.3642 19.9423 14.2046 20.1516 15.0846L21.8023 15.72V18.4168L20.1511 19.0523C19.9418 19.9321 19.5929 20.7723 19.1189 21.5423L19.8375 23.1604L17.9305 25.0673L16.3131 24.3489C15.5429 24.8232 14.7023 25.172 13.8224 25.3813L13.187 27.032H10.4903L9.85477 25.3808C8.97504 25.1715 8.1348 24.8227 7.36477 24.3486L5.74676 25.0672L3.83977 23.1602L4.55824 21.5428C4.08387 20.7727 3.73523 19.9321 3.52582 19.0522L1.875 18.4167V15.7199L3.52594 15.0844C3.73535 14.2045 4.0841 13.3643 4.55824 12.5943L3.83977 10.9764L5.74676 9.06938L7.36477 9.78797C8.1348 9.31383 8.97504 8.96508 9.85477 8.75566L10.4904 7.10449H13.1872L13.8226 8.75578ZM11.8386 12.365C9.24082 12.365 7.13543 14.4705 7.13543 17.0684C7.13543 19.6661 9.24094 21.7716 11.8386 21.7716C14.4363 21.7716 16.5418 19.6661 16.5418 17.0684C16.542 14.4705 14.4364 12.365 11.8386 12.365Z" fill="#007EA7"/>
</svg>
