<svg width="233" height="241" viewBox="0 0 233 241" fill="none" xmlns="http://www.w3.org/2000/svg">
<path d="M156.704 37.8534C157.605 36.9523 158.219 35.8043 158.467 34.5545C158.716 33.3047 158.589 32.0093 158.101 30.832C157.614 29.6547 156.788 28.6482 155.729 27.9399C154.67 27.2316 153.424 26.8532 152.15 26.8525H135.875C134.615 26.852 133.382 26.4818 132.33 25.7878C131.278 25.0938 130.453 24.1065 129.956 22.9481L122.092 4.5873C121.596 3.42822 120.77 2.44029 119.718 1.74601C118.665 1.05173 117.432 0.681641 116.172 0.681641C114.911 0.681641 113.678 1.05173 112.625 1.74601C111.573 2.44029 110.747 3.42822 110.251 4.5873L102.385 22.9481C101.889 24.1068 101.064 25.0945 100.011 25.7885C98.9591 26.4826 97.7262 26.8525 96.4657 26.8525H80.193C78.9186 26.8528 77.6729 27.231 76.6134 27.9392C75.5539 28.6474 74.7282 29.6538 74.2405 30.8311C73.7529 32.0085 73.6252 33.3041 73.8737 34.554C74.1222 35.8039 74.7357 36.9521 75.6366 37.8534L87.8264 50.0474C88.6135 50.8342 89.1834 51.8115 89.4804 52.884C89.7774 53.9566 89.7915 55.0878 89.5213 56.1674L83.7603 79.2176C83.454 80.4425 83.5143 81.7304 83.9337 82.9214C84.3532 84.1123 85.1134 85.1538 86.1197 85.9163C87.1261 86.6789 88.3344 87.1289 89.5944 87.2106C90.8544 87.2922 92.1106 87.0018 93.207 86.3755L112.975 75.0745C113.948 74.5182 115.05 74.2257 116.171 74.2257C117.291 74.2257 118.393 74.5182 119.366 75.0745L139.136 86.3755C140.233 87.0018 141.489 87.2921 142.749 87.2104C144.008 87.1288 145.217 86.6786 146.223 85.916C147.229 85.1534 147.989 84.112 148.408 82.9211C148.827 81.7302 148.887 80.4423 148.581 79.2176L142.82 56.1674C142.55 55.0877 142.564 53.9567 142.861 52.8842C143.158 51.8118 143.728 50.8345 144.515 50.0474L156.704 37.8534Z" fill="white"/>
<path d="M12.6172 88.3514L8.01006 106.792C7.76468 107.772 7.81265 108.802 8.14802 109.755C8.48338 110.708 9.09135 111.541 9.89634 112.151C10.7013 112.761 11.6679 113.121 12.6758 113.186C13.6836 113.251 14.6885 113.019 15.5653 112.517L31.3794 103.477C32.1584 103.032 33.0397 102.798 33.9366 102.798C34.8334 102.798 35.7148 103.032 36.4937 103.477L52.31 112.517C53.1867 113.019 54.1914 113.251 55.1992 113.186C56.207 113.121 57.1734 112.761 57.9783 112.151C58.7831 111.541 59.3909 110.708 59.726 109.755C60.0611 108.802 60.1088 107.772 59.8631 106.792L55.256 88.3514C55.0401 87.4879 55.0514 86.5832 55.2888 85.7253C55.5261 84.8674 55.9815 84.0856 56.6106 83.4558L66.3637 73.6996C67.0844 72.9787 67.5752 72.0603 67.774 71.0606C67.9729 70.0608 67.871 69.0246 67.481 68.0828C67.0911 67.141 66.4307 66.3359 65.5834 65.7693C64.736 65.2027 63.7397 64.9001 62.7203 64.8996H49.7021C48.6932 64.8995 47.7065 64.6033 46.8643 64.0479C46.0221 63.4924 45.3614 62.702 44.964 61.7747L38.6726 47.0876C38.2758 46.1603 37.6154 45.3699 36.7735 44.8145C35.9316 44.259 34.9452 43.9629 33.9366 43.9629C32.9279 43.9629 31.9415 44.259 31.0996 44.8145C30.2577 45.3699 29.5974 46.1603 29.2006 47.0876L22.9091 61.7751C22.5117 62.7024 21.851 63.4928 21.0088 64.0482C20.1666 64.6037 19.1799 64.8998 18.171 64.9H5.1528C4.13346 64.9004 3.13714 65.2031 2.28977 65.7697C1.44239 66.3362 0.782009 67.1413 0.392083 68.0831C0.00215636 69.0249 -0.0998057 70.0612 0.0990815 71.0609C0.297969 72.0607 0.788778 72.979 1.50947 73.6999L11.2626 83.4562C11.8916 84.0859 12.3469 84.8677 12.5843 85.7255C12.8216 86.5833 12.833 87.4879 12.6172 88.3514Z" fill="white"/>
<path d="M227.783 64.8996H214.764C213.756 64.8997 212.769 64.6037 211.927 64.0481C211.085 63.4926 210.425 62.7021 210.028 61.7747L203.735 47.0876C203.338 46.1603 202.678 45.3699 201.836 44.8145C200.994 44.259 200.008 43.9629 198.999 43.9629C197.99 43.9629 197.004 44.259 196.162 44.8145C195.32 45.3699 194.66 46.1603 194.263 47.0876L187.969 61.7754C187.573 62.7025 186.913 63.4929 186.072 64.0484C185.23 64.6039 184.244 64.9001 183.236 64.9003H170.217C169.198 64.9004 168.201 65.2027 167.354 65.7692C166.506 66.3356 165.845 67.1406 165.455 68.0825C165.065 69.0244 164.963 70.0608 165.161 71.0608C165.36 72.0607 165.851 72.9792 166.572 73.7003L176.325 83.4565C176.954 84.086 177.41 84.8678 177.647 85.7258C177.885 86.5837 177.896 87.4886 177.68 88.3521L173.07 106.793C172.825 107.773 172.874 108.803 173.209 109.756C173.545 110.709 174.153 111.542 174.958 112.151C175.763 112.761 176.73 113.121 177.738 113.187C178.746 113.252 179.751 113.019 180.628 112.518L196.442 103.477C197.221 103.033 198.102 102.799 198.999 102.799C199.896 102.799 200.777 103.033 201.556 103.477L217.37 112.518C218.247 113.019 219.252 113.252 220.26 113.186C221.268 113.121 222.234 112.761 223.039 112.151C223.844 111.541 224.453 110.708 224.788 109.756C225.124 108.803 225.172 107.773 224.927 106.793L220.318 88.3521C220.102 87.4885 220.113 86.5838 220.351 85.726C220.588 84.8681 221.044 84.0863 221.673 83.4565L231.426 73.6996C232.147 72.9787 232.638 72.0603 232.837 71.0606C233.035 70.0608 232.933 69.0245 232.543 68.0827C232.154 67.1409 231.493 66.3358 230.646 65.7693C229.798 65.2027 228.802 64.9001 227.783 64.8996Z" fill="white"/>
<path d="M41.2381 155.188H55.593C57.8845 155.188 60.0823 156.099 61.7027 157.719C63.323 159.34 64.2334 161.537 64.2334 163.829V231.519C64.2334 233.811 63.3229 236.009 61.7023 237.63C60.0818 239.25 57.8838 240.161 55.5919 240.161H41.2381C38.9463 240.161 36.7483 239.25 35.1277 237.63C33.5071 236.009 32.5967 233.811 32.5967 231.519V163.83C32.5967 162.695 32.8202 161.571 33.2544 160.523C33.6887 159.475 34.3252 158.522 35.1277 157.72C35.9301 156.917 36.8827 156.281 37.9312 155.846C38.9796 155.412 40.1033 155.188 41.2381 155.188Z" fill="white"/>
<path d="M150.019 164.63H126.992L142.4 118.492C142.813 117.206 143.017 115.862 143.007 114.51C143.029 111.887 142.243 109.32 140.755 107.159C139.268 104.998 137.152 103.346 134.694 102.429C132.236 101.512 129.555 101.374 127.016 102.033C124.477 102.692 122.201 104.117 120.5 106.113L74.9107 159.397C73.5626 160.956 72.824 162.951 72.8311 165.012C72.8798 176.025 72.8882 212.831 72.8903 226.662C72.8908 228.264 73.3389 229.835 74.1843 231.197C75.0297 232.558 76.2387 233.657 77.6749 234.368L79.2959 235.179C85.8953 238.48 93.1729 240.199 100.552 240.199H140.583C144.801 240.173 148.891 238.748 152.212 236.148C155.533 233.547 157.897 229.918 158.933 225.83L168.369 188.089C169.061 185.303 169.109 182.396 168.51 179.589C167.911 176.781 166.681 174.147 164.912 171.886C163.143 169.625 160.883 167.797 158.303 166.539C155.722 165.282 152.889 164.629 150.019 164.63Z" fill="white"/>
</svg>
