<svg width="60" height="61" viewBox="0 0 60 61" fill="none" xmlns="http://www.w3.org/2000/svg">
<path d="M58.125 25.6816V35.0566C58.125 37.6421 56.0229 39.7441 53.4375 39.7441H52.1613C50.3687 50.3679 41.1273 58.4941 30 58.4941C28.9636 58.4941 28.125 57.6555 28.125 56.6191C28.125 55.5828 28.9636 54.7441 30 54.7441C40.3381 54.7441 48.75 46.3323 48.75 35.9941V24.7441C48.75 14.406 40.3381 5.99414 30 5.99414C19.6619 5.99414 11.25 14.406 11.25 24.7441V37.8691C11.25 38.9055 10.4114 39.7441 9.375 39.7441H6.5625C3.97705 39.7441 1.875 37.6421 1.875 35.0566V25.6816C1.875 23.0962 3.97705 20.9941 6.5625 20.9941H7.83875C9.63135 10.3704 18.8727 2.24414 30 2.24414C41.1273 2.24414 50.3687 10.3704 52.1613 20.9941H53.4375C56.0229 20.9941 58.125 23.0962 58.125 25.6816ZM30 9.74414C21.7291 9.74414 15 16.4733 15 24.7441V34.1191C15 42.39 21.7291 49.1191 30 49.1191C38.2709 49.1191 45 42.39 45 34.1191V24.7441C45 16.4733 38.2709 9.74414 30 9.74414Z" fill="#007EA7"/>
</svg>
