<svg width="60" height="61" viewBox="0 0 60 61" fill="none" xmlns="http://www.w3.org/2000/svg">
<g clip-path="url(#clip0_83479_3080)">
<path d="M44.9941 34.9708C45.6313 34.977 46.1423 35.4879 46.1485 36.1251V37.2794H47.3089C49.202 37.2794 50.7657 38.8432 50.7657 40.7424C50.7657 41.3796 50.2548 41.8967 49.6176 41.9029C48.9742 41.9029 48.4509 41.3857 48.4571 40.7424C48.4571 40.0929 47.9584 39.5881 47.3089 39.5881H42.6855C42.036 39.5881 41.525 40.0929 41.525 40.7424V43.051C41.525 43.7005 42.036 44.2115 42.6855 44.2115H47.3089C49.202 44.2115 50.7657 45.7691 50.7657 47.6683V49.977C50.7657 51.8762 49.202 53.4399 47.3089 53.4399H46.1485V54.5942C46.1423 55.2314 45.6313 55.7486 44.9941 55.7486C44.357 55.7486 43.8398 55.2376 43.8337 54.5942V53.4399H42.6855C40.7863 53.4399 39.2164 51.8762 39.2164 49.977C39.2164 49.3336 39.7397 48.8165 40.3769 48.8165C41.014 48.8226 41.5312 49.3398 41.525 49.977C41.525 50.6264 42.036 51.1313 42.6855 51.1313H47.3089C47.9584 51.1313 48.4571 50.6264 48.4571 49.977V47.6683C48.4571 47.0188 47.9584 46.5078 47.3089 46.5078H42.6855C40.7863 46.5078 39.2164 44.9503 39.2164 43.051V40.7424C39.2164 38.8432 40.7863 37.2794 42.6855 37.2794H43.8337V36.1251C43.8398 35.4879 44.357 34.9708 44.9941 34.9708ZM44.9941 30.3535C36.6907 30.3535 29.9941 37.0563 29.9941 45.3597C29.9941 53.6631 36.6923 60.3658 44.9941 60.3658C53.296 60.3658 60.0003 53.6631 60.0003 45.3597C60.0003 37.0563 53.296 30.3535 44.9941 30.3535Z" fill="#007EA7"/>
<path d="M26.5186 7.27336C27.1558 7.26721 27.679 7.78434 27.679 8.42153V22.4242C29.6629 22.9413 31.142 24.7559 31.142 26.8968C31.142 29.4332 29.0565 31.5018 26.5186 31.5018C24.3839 31.5018 22.5693 30.0289 22.0521 28.045H11.5186C10.8814 28.045 10.3704 27.5278 10.3643 26.8968C10.3643 26.2596 10.8814 25.7363 11.5186 25.7363H22.0521C22.4723 24.1249 23.7528 22.8444 25.3704 22.4242V8.42153C25.3766 7.7905 25.8875 7.27336 26.5186 7.27336ZM25.3704 0.37207C18.9016 0.647568 13.0392 3.22709 8.5789 7.31492L11.0138 9.74976C11.4709 10.2007 11.4709 10.9349 11.0138 11.3858C10.5628 11.8368 9.8348 11.8368 9.38385 11.3858L6.949 8.94482C2.85502 13.4051 0.275498 19.2675 0 25.7363H3.43833C4.07552 25.7363 4.59265 26.2596 4.5865 26.8968C4.5865 27.5278 4.06936 28.045 3.43833 28.045H0C0.269341 34.5138 2.85502 40.3762 6.94285 44.8365L9.38385 42.4016C9.60086 42.1861 9.89483 42.0646 10.1965 42.0584C10.5028 42.0584 10.7967 42.1861 11.0138 42.4016C11.4585 42.8526 11.4585 43.5806 11.0138 44.0315L8.5789 46.4664C13.3039 50.7958 19.5988 53.44 26.5186 53.44C27.559 53.44 28.5871 53.38 29.5906 53.2599C28.3701 50.8913 27.679 48.204 27.679 45.3598C27.679 35.8128 35.4468 28.045 44.9938 28.045C47.8381 28.045 50.5253 28.736 52.9002 29.9565C53.0141 28.953 53.0741 27.9311 53.0741 26.8968C53.0741 19.9709 50.4284 13.676 46.1005 8.95097L43.6656 11.3858C43.2147 11.8429 42.4805 11.8429 42.0296 11.3858C41.5786 10.9349 41.5786 10.2007 42.0296 9.74976L44.4644 7.31492C40.0041 3.22709 34.1479 0.647568 27.679 0.37207V3.80425C27.6852 4.44143 27.1619 4.96472 26.5186 4.95857C25.8814 4.95857 25.3704 4.44143 25.3704 3.80425V0.37207Z" fill="#007EA7"/>
<path d="M26.5245 24.5879C27.8111 24.5879 28.8331 25.6037 28.8331 26.8965C28.8331 28.1832 27.8111 29.1929 26.5245 29.1929C25.2316 29.1929 24.2158 28.1832 24.2158 26.8965C24.2158 25.6037 25.2316 24.5879 26.5245 24.5879Z" fill="#007EA7"/>
</g>
<defs>
<clipPath id="clip0_83479_3080">
<rect width="60" height="60" fill="white" transform="translate(0 0.369141)"/>
</clipPath>
</defs>
</svg>
